<svg id="visual" viewBox="0 0 1980 1080" width="1980" height="1080" xmlns="http://www.w3.org/2000/svg" xmlns:xlink="http://www.w3.org/1999/xlink" version="1.1"><rect x="0" y="0" width="1980" height="1080" fill="#ffffff"></rect><defs><linearGradient id="grad1_0" x1="45.5%" y1="0%" x2="100%" y2="100%"><stop offset="13.333333333333334%" stop-color="#ffffff" stop-opacity="1"></stop><stop offset="86.66666666666667%" stop-color="#ffffff" stop-opacity="1"></stop></linearGradient></defs><defs><linearGradient id="grad2_0" x1="0%" y1="0%" x2="54.5%" y2="100%"><stop offset="13.333333333333334%" stop-color="#ffffff" stop-opacity="1"></stop><stop offset="86.66666666666667%" stop-color="#ffffff" stop-opacity="1"></stop></linearGradient></defs><g transform="translate(1980, 0)"><path d="M0 648C-66.1 581.8 -132.3 515.6 -198.2 478.6C-264.2 441.5 -329.9 433.7 -403.1 403.1C-476.2 372.4 -556.6 319 -598.7 248C-640.7 177 -644.4 88.5 -648 0L0 0Z" fill="#536f79"></path></g><g transform="translate(0, 1080)"><path d="M0 -648C93.4 -644.4 186.7 -640.8 244.9 -591.3C303.1 -541.8 326.1 -446.3 387.5 -387.5C448.9 -328.7 548.8 -306.5 598.7 -248C648.5 -189.5 648.3 -94.7 648 0L0 0Z" fill="#536f79"></path></g></svg>